<?xml version="1.0" encoding="UTF-8"?>
<svg width="285px" height="285px" viewBox="0 0 285 285" version="1.1" xmlns="http://www.w3.org/2000/svg" xmlns:xlink="http://www.w3.org/1999/xlink">
    <!-- Generator: Sketch 42 (36781) - http://www.bohemiancoding.com/sketch -->
    <title>Designer</title>
    <desc>Created with Sketch.</desc>
    <defs></defs>
    <g id="Page-1" stroke="none" stroke-width="1" fill="none" fill-rule="evenodd">
        <g id="Designer">
            <g transform="translate(5.000000, 35.000000)">
                <path d="M249.834538,178.363895 C256.237709,163.143375 259.787821,146.44651 259.787821,128.928553 C259.787821,57.9385605 201.729707,0.393427863 130.103356,0.393427863 C58.4810581,0.393427863 0.418891765,57.9385605 0.418891765,128.928553 C0.418891765,146.44651 3.96900398,163.143375 10.3762271,178.363895 L249.834538,178.363895 Z" id="Fill-1" fill="#DEF9FC"></path>
                <path d="M224.997532,180.386287 C232.847494,165.610693 237.341872,148.808663 237.341872,130.950945 C237.341872,72.249004 189.330251,24.6621279 130.104977,24.6621279 C70.8797035,24.6621279 22.8680831,72.249004 22.8680831,130.950945 C22.8680831,148.808663 27.3584077,165.610693 35.2124231,180.386287 L224.997532,180.386287 Z" id="Fill-4" fill="#C1F3F9"></path>
                <path d="M24.7363499,178.363895 L16.6310709,178.363895" id="Stroke-7" stroke="#504B46" stroke-linecap="round"></path>
                <path d="M243.578884,178.363895 L235.473605,178.363895" id="Stroke-8" stroke="#504B46" stroke-linecap="round"></path>
                <path d="M32.841629,178.363895 L227.368326,178.363895" id="Stroke-9" stroke="#504B46" stroke-linecap="round"></path>
                <path d="M146.062245,107.580187 L121.746408,107.580187 C99.3636803,107.580187 81.2200132,125.688682 81.2200132,148.02802 L81.2200132,150.050412 L101.483211,150.050412 L101.483211,178.363895 L166.325443,178.363895 L166.325443,150.050412 L186.588641,150.050412 L186.588641,148.02802 C186.588641,125.688682 168.444974,107.580187 146.062245,107.580187" id="Fill-10" fill="#4F6FC0"></path>
                <path d="M186.140824,142.338223 C186.035455,141.581849 185.942245,140.817385 185.79635,140.073145 C185.662613,140.3401 185.573454,140.631325 185.573454,140.950863 C185.573454,141.488819 185.79635,141.974193 186.140824,142.338223" id="Fill-12" fill="#FFFFFF"></path>
                <path d="M177.470202,128.815299 C176.351673,128.815299 175.443882,129.721331 175.443882,130.837691 C175.443882,131.954051 176.351673,132.860082 177.470202,132.860082 C178.58873,132.860082 179.496521,131.954051 179.496521,130.837691 C179.496521,129.721331 178.58873,128.815299 177.470202,128.815299" id="Fill-14" fill="#FFFFFF"></path>
                <path d="M177.470202,149.039216 C176.724516,149.039216 176.104462,149.459873 175.751883,150.054456 L179.188521,150.054456 C178.835941,149.459873 178.215887,149.039216 177.470202,149.039216" id="Fill-16" fill="#FFFFFF"></path>
                <path d="M155.180684,110.613774 C155.180684,111.730134 156.088476,112.636166 157.207004,112.636166 C158.325533,112.636166 159.233324,111.730134 159.233324,110.613774 C159.233324,110.294236 159.144166,109.998967 159.010429,109.732011 C158.082374,109.420563 157.138109,109.153607 156.181686,108.906875 C155.594054,109.262816 155.180684,109.877623 155.180684,110.613774" id="Fill-18" fill="#FFFFFF"></path>
                <path d="M167.338603,122.748124 C168.457131,122.748124 169.364923,121.842093 169.364923,120.725732 C169.364923,119.609372 168.457131,118.703341 167.338603,118.703341 C166.220074,118.703341 165.312283,119.609372 165.312283,120.725732 C165.312283,121.842093 166.220074,122.748124 167.338603,122.748124" id="Fill-20" fill="#FFFFFF"></path>
                <path d="M157.207004,132.860082 C158.325533,132.860082 159.233324,131.954051 159.233324,130.837691 C159.233324,129.721331 158.325533,128.815299 157.207004,128.815299 C156.088476,128.815299 155.180684,129.721331 155.180684,130.837691 C155.180684,131.954051 156.088476,132.860082 157.207004,132.860082" id="Fill-22" fill="#FFFFFF"></path>
                <path d="M167.338603,142.972041 C168.457131,142.972041 169.364923,142.066009 169.364923,140.949649 C169.364923,139.833289 168.457131,138.927257 167.338603,138.927257 C166.220074,138.927257 165.312283,139.833289 165.312283,140.949649 C165.312283,142.066009 166.220074,142.972041 167.338603,142.972041" id="Fill-24" fill="#FFFFFF"></path>
                <path d="M157.207004,153.083999 C158.325533,153.083999 159.233324,152.177968 159.233324,151.061607 C159.233324,149.945247 158.325533,149.039216 157.207004,149.039216 C156.088476,149.039216 155.180684,149.945247 155.180684,151.061607 C155.180684,152.177968 156.088476,153.083999 157.207004,153.083999" id="Fill-26" fill="#FFFFFF"></path>
                <path d="M165.312283,161.173566 C165.312283,161.913761 165.729705,162.532613 166.325443,162.884509 L166.325443,159.462622 C165.729705,159.814519 165.312283,160.43337 165.312283,161.173566" id="Fill-28" fill="#FFFFFF"></path>
                <path d="M157.207004,169.263133 C156.088476,169.263133 155.180684,170.169164 155.180684,171.285524 C155.180684,172.401884 156.088476,173.307916 157.207004,173.307916 C158.325533,173.307916 159.233324,172.401884 159.233324,171.285524 C159.233324,170.169164 158.325533,169.263133 157.207004,169.263133" id="Fill-30" fill="#FFFFFF"></path>
                <path d="M136.943807,112.636166 C138.062335,112.636166 138.970126,111.730134 138.970126,110.613774 C138.970126,109.497414 138.062335,108.591382 136.943807,108.591382 C135.825278,108.591382 134.917487,109.497414 134.917487,110.613774 C134.917487,111.730134 135.825278,112.636166 136.943807,112.636166" id="Fill-32" fill="#FFFFFF"></path>
                <path d="M147.075405,122.748124 C148.193934,122.748124 149.101725,121.842093 149.101725,120.725732 C149.101725,119.609372 148.193934,118.703341 147.075405,118.703341 C145.956877,118.703341 145.049086,119.609372 145.049086,120.725732 C145.049086,121.842093 145.956877,122.748124 147.075405,122.748124" id="Fill-34" fill="#FFFFFF"></path>
                <path d="M136.943807,132.860082 C138.062335,132.860082 138.970126,131.954051 138.970126,130.837691 C138.970126,129.721331 138.062335,128.815299 136.943807,128.815299 C135.825278,128.815299 134.917487,129.721331 134.917487,130.837691 C134.917487,131.954051 135.825278,132.860082 136.943807,132.860082" id="Fill-36" fill="#FFFFFF"></path>
                <path d="M147.075405,142.972041 C148.193934,142.972041 149.101725,142.066009 149.101725,140.949649 C149.101725,139.833289 148.193934,138.927257 147.075405,138.927257 C145.956877,138.927257 145.049086,139.833289 145.049086,140.949649 C145.049086,142.066009 145.956877,142.972041 147.075405,142.972041" id="Fill-38" fill="#FFFFFF"></path>
                <path d="M136.943807,149.039216 C135.825278,149.039216 134.917487,149.945247 134.917487,151.061607 C134.917487,152.177968 135.825278,153.083999 136.943807,153.083999 C138.062335,153.083999 138.970126,152.177968 138.970126,151.061607 C138.970126,149.945247 138.062335,149.039216 136.943807,149.039216" id="Fill-40" fill="#FFFFFF"></path>
                <path d="M147.075405,159.151174 C145.956877,159.151174 145.049086,160.057206 145.049086,161.173566 C145.049086,162.289926 145.956877,163.195958 147.075405,163.195958 C148.193934,163.195958 149.101725,162.289926 149.101725,161.173566 C149.101725,160.057206 148.193934,159.151174 147.075405,159.151174" id="Fill-42" fill="#FFFFFF"></path>
                <path d="M136.943807,169.263133 C135.825278,169.263133 134.917487,170.169164 134.917487,171.285524 C134.917487,172.401884 135.825278,173.307916 136.943807,173.307916 C138.062335,173.307916 138.970126,172.401884 138.970126,171.285524 C138.970126,170.169164 138.062335,169.263133 136.943807,169.263133" id="Fill-44" fill="#FFFFFF"></path>
                <path d="M116.680609,112.636166 C117.799137,112.636166 118.706929,111.730134 118.706929,110.613774 C118.706929,109.497414 117.799137,108.591382 116.680609,108.591382 C115.56208,108.591382 114.654289,109.497414 114.654289,110.613774 C114.654289,111.730134 115.56208,112.636166 116.680609,112.636166" id="Fill-46" fill="#FFFFFF"></path>
                <path d="M126.812208,122.748124 C127.930736,122.748124 128.838528,121.842093 128.838528,120.725732 C128.838528,119.609372 127.930736,118.703341 126.812208,118.703341 C125.693679,118.703341 124.785888,119.609372 124.785888,120.725732 C124.785888,121.842093 125.693679,122.748124 126.812208,122.748124" id="Fill-48" fill="#FFFFFF"></path>
                <path d="M116.680609,128.815299 C115.56208,128.815299 114.654289,129.721331 114.654289,130.837691 C114.654289,131.954051 115.56208,132.860082 116.680609,132.860082 C117.799137,132.860082 118.706929,131.954051 118.706929,130.837691 C118.706929,129.721331 117.799137,128.815299 116.680609,128.815299" id="Fill-50" fill="#FFFFFF"></path>
                <path d="M126.812208,138.927257 C125.693679,138.927257 124.785888,139.833289 124.785888,140.949649 C124.785888,142.066009 125.693679,142.972041 126.812208,142.972041 C127.930736,142.972041 128.838528,142.066009 128.838528,140.949649 C128.838528,139.833289 127.930736,138.927257 126.812208,138.927257" id="Fill-52" fill="#FFFFFF"></path>
                <path d="M116.680609,149.039216 C115.56208,149.039216 114.654289,149.945247 114.654289,151.061607 C114.654289,152.177968 115.56208,153.083999 116.680609,153.083999 C117.799137,153.083999 118.706929,152.177968 118.706929,151.061607 C118.706929,149.945247 117.799137,149.039216 116.680609,149.039216" id="Fill-54" fill="#FFFFFF"></path>
                <path d="M126.812208,159.151174 C125.693679,159.151174 124.785888,160.057206 124.785888,161.173566 C124.785888,162.289926 125.693679,163.195958 126.812208,163.195958 C127.930736,163.195958 128.838528,162.289926 128.838528,161.173566 C128.838528,160.057206 127.930736,159.151174 126.812208,159.151174" id="Fill-56" fill="#FFFFFF"></path>
                <path d="M116.680609,169.263133 C115.56208,169.263133 114.654289,170.169164 114.654289,171.285524 C114.654289,172.401884 115.56208,173.307916 116.680609,173.307916 C117.799137,173.307916 118.706929,172.401884 118.706929,171.285524 C118.706929,170.169164 117.799137,169.263133 116.680609,169.263133" id="Fill-58" fill="#FFFFFF"></path>
                <path d="M106.54901,118.703341 C105.430482,118.703341 104.52269,119.609372 104.52269,120.725732 C104.52269,121.842093 105.430482,122.748124 106.54901,122.748124 C107.667539,122.748124 108.57533,121.842093 108.57533,120.725732 C108.57533,119.609372 107.667539,118.703341 106.54901,118.703341" id="Fill-60" fill="#FFFFFF"></path>
                <path d="M96.4174114,132.860082 C97.5359399,132.860082 98.4437311,131.954051 98.4437311,130.837691 C98.4437311,129.721331 97.5359399,128.815299 96.4174114,128.815299 C95.2988829,128.815299 94.3910916,129.721331 94.3910916,130.837691 C94.3910916,131.954051 95.2988829,132.860082 96.4174114,132.860082" id="Fill-62" fill="#FFFFFF"></path>
                <path d="M106.54901,138.927257 C105.430482,138.927257 104.52269,139.833289 104.52269,140.949649 C104.52269,142.066009 105.430482,142.972041 106.54901,142.972041 C107.667539,142.972041 108.57533,142.066009 108.57533,140.949649 C108.57533,139.833289 107.667539,138.927257 106.54901,138.927257" id="Fill-64" fill="#FFFFFF"></path>
                <path d="M96.4174114,149.039216 C95.6717257,149.039216 95.0516719,149.459873 94.6990922,150.054456 L98.1357305,150.054456 C97.7831509,149.459873 97.1630971,149.039216 96.4174114,149.039216" id="Fill-66" fill="#FFFFFF"></path>
                <path d="M106.54901,159.151174 C105.430482,159.151174 104.52269,160.057206 104.52269,161.173566 C104.52269,162.289926 105.430482,163.195958 106.54901,163.195958 C107.667539,163.195958 108.57533,162.289926 108.57533,161.173566 C108.57533,160.057206 107.667539,159.151174 106.54901,159.151174" id="Fill-68" fill="#FFFFFF"></path>
                <path d="M86.2858126,138.927257 C85.1672841,138.927257 84.2594928,139.833289 84.2594928,140.949649 C84.2594928,142.066009 85.1672841,142.972041 86.2858126,142.972041 C87.4043411,142.972041 88.3121324,142.066009 88.3121324,140.949649 C88.3121324,139.833289 87.4043411,138.927257 86.2858126,138.927257" id="Fill-70" fill="#FFFFFF"></path>
                <path d="M186.588641,148.032874 C186.588641,125.693535 168.444974,107.58504 146.062245,107.58504 L121.746408,107.58504 C99.3636803,107.58504 81.2200132,125.693535 81.2200132,148.032874 L81.2200132,152.077657 C81.2200132,129.738319 99.3636803,123.764174 121.746408,123.764174 L146.062245,123.764174 C168.444974,123.764174 186.588641,129.738319 186.588641,152.077657 L186.588641,148.032874 Z" id="Fill-72" fill-opacity="0.2" fill="#FFFFFF"></path>
                <polyline id="Stroke-74" stroke="#504B46" stroke-linecap="round" stroke-linejoin="round" points="101.483211 146.010482 101.483211 178.368749 166.325443 178.368749 166.325443 146.010482"></polyline>
                <path d="M166.325443,150.055265 L166.325443,150.055265 L186.588641,150.055265 L186.588641,148.032874 C186.588641,125.693535 168.444974,107.58504 146.062245,107.58504 L121.746408,107.58504 C99.3636803,107.58504 81.2200132,125.693535 81.2200132,148.032874 L81.2200132,150.055265 L101.483211,150.055265" id="Stroke-76" stroke="#504B46" stroke-linecap="round" stroke-linejoin="round"></path>
                <path d="M101.483211,154.100049 L101.483211,150.055265" id="Fill-78" fill="#EDF2F4"></path>
                <path d="M101.483211,154.100049 L101.483211,150.055265" id="Stroke-80" stroke="#504B46" stroke-linecap="round" stroke-linejoin="round"></path>
                <path d="M134.157617,154.095195 L134.157617,176.341503" id="Fill-82" fill="#FFD183"></path>
                <path d="M134.157617,154.095195 L134.157617,176.341503" id="Stroke-84" stroke="#4F4A45" stroke-linecap="round" stroke-linejoin="round"></path>
                <path d="M221.036077,186.453462 L214.957117,186.453462 L210.904478,186.453462 L206.596522,186.453462 C196.07587,186.453462 186.333324,182.780798 186.333324,156.121631 L186.333324,150.054456 L170.122766,150.054456 L170.122766,156.121631 C170.122766,194.563252 189.960437,202.632595 206.596522,202.632595 L210.904478,202.632595 L214.957117,202.632595 L221.036077,202.632595 C225.514243,202.632595 229.141356,199.008469 229.141356,194.543028 C229.141356,190.073543 225.514243,186.453462 221.036077,186.453462" id="Fill-86" fill="#FFD4C3"></path>
                <path d="M221.036077,186.453462 L214.957117,186.453462 L210.904478,186.453462 L206.596522,186.453462 C196.07587,186.453462 186.333324,182.780798 186.333324,156.121631 L186.333324,150.054456 L170.122766,150.054456 L170.122766,156.121631 C170.122766,194.563252 189.960437,202.632595 206.596522,202.632595 L210.904478,202.632595 L214.957117,202.632595 L221.036077,202.632595 C225.514243,202.632595 229.141356,199.008469 229.141356,194.543028 C229.141356,190.073543 225.514243,186.453462 221.036077,186.453462 L221.036077,186.453462 Z" id="Stroke-88" stroke="#4F4A45"></path>
                <path d="M146.062245,111.203099 C146.062245,115.260017 144.031873,119.049979 140.647919,121.298878 C136.562858,124.016973 131.245795,124.016973 127.160735,121.298878 C123.776781,119.049979 121.746408,115.260017 121.746408,111.203099 L121.746408,93.4303209 L146.062245,93.4303209 L146.062245,111.203099 Z" id="Fill-90" fill="#FFDFD1"></path>
                <path d="M121.746408,107.151439 C122.054409,107.288962 122.342146,107.442664 122.666358,107.568052 C129.470739,110.286147 138.337915,110.286147 145.142296,107.568052 C145.466507,107.442664 145.754245,107.288962 146.062245,107.151439 L146.062245,93.4274896 L121.746408,93.4274896 L121.746408,107.151439 Z" id="Fill-92" fill="#FFCAB3"></path>
                <path d="M146.062245,111.203099 C146.062245,115.260017 144.031873,119.049979 140.647919,121.298878 C136.562858,124.016973 131.245795,124.016973 127.160735,121.298878 C123.776781,119.049979 121.746408,115.260017 121.746408,111.203099 L121.746408,93.4303209 L146.062245,93.4303209 L146.062245,111.203099 L146.062245,111.203099 Z" id="Stroke-94" stroke="#504B46" stroke-linecap="round" stroke-linejoin="round"></path>
                <path d="M174.430722,63.0924235 C174.430722,59.3267302 171.841085,56.1920231 168.351763,55.2900364 L168.351763,52.9804651 C168.351763,35.1106123 151.808888,20.6221983 133.904327,20.6221983 C115.999766,20.6221983 99.456891,35.1106123 99.456891,52.9804651 L99.456891,55.2900364 C95.9675684,56.1920231 93.3779317,59.3267302 93.3779317,63.0924235 C93.3779317,66.890475 96.0080948,70.0534956 99.5460491,70.923124 C100.470051,87.967841 116.595504,101.517865 133.904327,101.517865 C151.21315,101.517865 167.338603,87.967841 168.262605,70.923124 C171.800559,70.0534956 174.430722,66.890475 174.430722,63.0924235" id="Fill-96" fill="#FFD4C3"></path>
                <path d="M174.430722,63.0924235 C174.430722,59.3267302 171.841085,56.1920231 168.351763,55.2900364 L168.351763,52.9804651 C168.351763,35.1106123 151.808888,20.6221983 133.904327,20.6221983 C115.999766,20.6221983 99.456891,35.1106123 99.456891,52.9804651 L99.456891,55.2900364 C95.9675684,56.1920231 93.3779317,59.3267302 93.3779317,63.0924235 C93.3779317,66.890475 96.0080948,70.0534956 99.5460491,70.923124 C100.470051,87.967841 116.595504,101.517865 133.904327,101.517865 C151.21315,101.517865 167.338603,87.967841 168.262605,70.923124 C171.800559,70.0534956 174.430722,66.890475 174.430722,63.0924235 L174.430722,63.0924235 Z" id="Stroke-98" stroke="#4F4A45"></path>
                <path d="M127.825368,65.1148151 C126.573102,62.7405273 124.376571,61.0700318 121.746408,61.0700318 C119.116245,61.0700318 116.919715,62.7405273 115.667449,65.1148151" id="Stroke-100" stroke="#504B46" stroke-linecap="round" stroke-linejoin="round"></path>
                <path d="M152.141205,65.1148151 C150.888939,62.7405273 148.692409,61.0700318 146.062245,61.0700318 C143.432082,61.0700318 141.235552,62.7405273 139.983286,65.1148151" id="Stroke-102" stroke="#504B46" stroke-linecap="round" stroke-linejoin="round"></path>
                <path d="M136.183937,48.930828 C147.661012,48.930828 158.092506,46.1520618 165.995153,41.6259493 C160.836143,29.366211 147.798802,20.6213894 133.906353,20.6213894 C120.873065,20.6213894 108.597619,28.3145673 102.863135,39.3810945 C111.029203,45.2258065 122.911542,48.930828 136.183937,48.930828" id="Fill-104" fill="#F9BEAA"></path>
                <path d="M161.597229,37.4703389 C161.718808,41.5313014 171.453248,97.2441472 134.156806,99.4890019 C97.6952086,101.689364 104.098379,36.7948601 109.840969,36.7948601 C119.972568,38.8172517 140.474871,43.7680665 162.274019,34.7724684 C174.683202,-15.7873234 86.3599759,-4.89876667 89.326508,36.7948601 C97.6830507,32.7500767 99.4581068,38.8172517 99.4581068,44.8844267 C99.4581068,64.2184911 100.471267,76.7370956 99.4581068,83.3098685 C92.6820935,127.24835 122.675679,129.48916 134.497228,153.082381 C147.668307,128.142247 178.573735,117.500422 168.352979,81.7930748 C166.833239,76.486319 172.150302,37.4703389 161.597229,37.4703389" id="Fill-106" fill="#FFD183"></path>
                <path d="M168.817411,101.11096 C168.679621,101.106915 168.545884,101.082647 168.408095,101.074557 C168.829569,101.228259 169.255096,101.394095 169.664413,101.527573 C169.688729,101.394095 169.700887,101.252527 169.725202,101.11905 C169.417202,101.11096 169.133517,101.123094 168.817411,101.11096" id="Fill-108" fill="#FFC258"></path>
                <path d="M98.6970211,101.115005 C98.709179,101.216124 98.7253896,101.309154 98.7375475,101.406229 C99.0374428,101.30511 99.3494961,101.187811 99.653444,101.074557 C99.5197069,101.082647 99.3859698,101.106915 99.2481801,101.11096 C99.057706,101.11905 98.8834425,101.11096 98.6970211,101.115005" id="Fill-110" fill="#FFC258"></path>
                <path d="M131.470312,99.0994893 C127.133987,98.974101 123.454191,97.8456064 120.357974,95.9566926 C114.307383,98.881071 107.186896,100.697179 99.6570914,101.073344 C99.3490908,101.186597 99.0370376,101.303896 98.7371422,101.409061 C99.2072484,105.376993 100.102882,108.871686 101.326779,111.994259 C113.614382,111.023511 124.706456,106.291114 131.470312,99.0994893" id="Fill-112" fill="#FFC258"></path>
                <path d="M168.409716,101.074557 C160.466542,100.674123 153.00158,98.6598213 146.75241,95.4442186 C143.83451,97.1389828 140.401924,98.3200595 136.377653,98.833747 C142.995613,106.037506 153.897213,110.830574 166.059185,111.9348 C167.712662,108.719198 168.973032,105.289221 169.661981,101.527573 C169.256717,101.394095 168.827137,101.228259 168.409716,101.074557" id="Fill-114" fill="#FFC258"></path>
                <path d="M97.2854868,37.2090459 C107.384664,14.9142001 146.800636,7.22506693 162.524878,22.5871541 C159.489451,-14.3295835 85.8165169,-2.00512866 88.5277328,36.1452679 C93.2895842,33.8437861 95.9075893,34.8226237 97.2854868,37.2090459" id="Fill-116" fill="#FFEDD8"></path>
                <path d="M161.597229,37.4703389 C161.718808,41.5313014 171.453248,97.2441472 134.156806,99.4890019 C97.6952086,101.689364 104.098379,36.7948601 109.840969,36.7948601 C119.972568,38.8172517 140.474871,43.7680665 162.274019,34.7724684 C174.683202,-15.7873234 86.3599759,-4.89876667 89.326508,36.7948601 C97.6830507,32.7500767 99.4581068,38.8172517 99.4581068,44.8844267 C99.4581068,64.2184911 100.471267,76.7370956 99.4581068,83.3098685 C92.6820935,127.24835 122.675679,129.48916 134.497228,153.082381 C147.668307,128.142247 179.497737,116.934152 167.339819,81.0367003 C165.568815,75.8067954 176.458258,37.4703389 161.597229,37.4703389 L161.597229,37.4703389 Z" id="Stroke-118" stroke="#4F4A45" stroke-linecap="round" stroke-linejoin="round"></path>
                <path d="M175.359587,83.6484169 C180.931966,81.3752487 184.307815,90.6418473 177.215696,91.9078645 C166.690991,93.784644 142.934418,73.7629664 134.156401,79.2679165 C125.382437,73.7629664 101.625864,93.784644 91.0971062,91.9078645 C84.0049871,90.6418473 87.3848884,81.3752487 92.9572678,83.6484169 C78.4326077,71.9347243 72.5603331,102.671033 99.3725961,101.514225 C114.201204,100.875149 127.570862,94.6866306 134.156401,85.3350916 C140.74194,94.6866306 154.115651,100.875149 168.944259,101.514225 C195.756522,102.671033 189.880194,71.9347243 175.359587,83.6484169" id="Fill-120" fill="#FFD183"></path>
                <path d="M175.359587,83.6484169 C180.931966,81.3752487 184.307815,90.6418473 177.215696,91.9078645 C166.690991,93.784644 142.934418,73.7629664 134.156401,79.2679165 C125.382437,73.7629664 101.625864,93.784644 91.0971062,91.9078645 C84.0049871,90.6418473 87.3848884,81.3752487 92.9572678,83.6484169 C78.4326077,71.9347243 72.5603331,102.671033 99.3725961,101.514225 C114.201204,100.875149 127.570862,94.6866306 134.156401,85.3350916 C140.74194,94.6866306 154.115651,100.875149 168.944259,101.514225 C195.756522,102.671033 189.880194,71.9347243 175.359587,83.6484169 L175.359587,83.6484169 Z" id="Stroke-122" stroke="#4F4A45" stroke-linecap="round" stroke-linejoin="round"></path>
                <path d="M144.289216,194.543028 C144.289216,190.073543 140.662103,186.453462 136.183937,186.453462 L130.104977,186.453462 L126.052338,186.453462 L121.748435,186.453462 C111.22373,186.453462 101.485237,182.780798 101.485237,156.121631 L101.485237,150.054456 L85.274679,150.054456 L85.274679,156.121631 C85.274679,194.563252 105.108297,202.632595 121.748435,202.632595 L126.052338,202.632595 L130.104977,202.632595 L136.183937,202.632595 C140.662103,202.632595 144.289216,199.008469 144.289216,194.543028" id="Fill-124" fill="#FFD4C3"></path>
                <path d="M144.289216,194.543028 C144.289216,190.073543 140.662103,186.453462 136.183937,186.453462 L130.104977,186.453462 L126.052338,186.453462 L121.748435,186.453462 C111.22373,186.453462 101.485237,182.780798 101.485237,156.121631 L101.485237,150.054456 L85.274679,150.054456 L85.274679,156.121631 C85.274679,194.563252 105.108297,202.632595 121.748435,202.632595 L126.052338,202.632595 L130.104977,202.632595 L136.183937,202.632595 C140.662103,202.632595 144.289216,199.008469 144.289216,194.543028 L144.289216,194.543028 Z" id="Stroke-126" stroke="#4F4A45"></path>
                <path d="M265.868401,208.69977 C265.868401,212.048851 233.208179,214.766945 192.92089,214.766945 C152.6336,214.766945 119.973379,212.048851 119.973379,208.69977 C119.973379,205.35069 152.6336,202.632595 192.92089,202.632595 C233.208179,202.632595 265.868401,205.35069 265.868401,208.69977" id="Fill-128" fill="#E4EDF1"></path>
                <path d="M177.969892,194.543028 L169.864613,194.543028 L189.220019,134.651921 C189.763073,132.981426 191.319287,131.848887 193.078132,131.848887 L198.23309,131.848887" id="Fill-130" fill="#E4EDF1"></path>
                <path d="M177.969892,194.543028 L169.864613,194.543028 L189.220019,134.651921 C189.763073,132.981426 191.319287,131.848887 193.078132,131.848887 L198.23309,131.848887" id="Stroke-132" stroke="#4F4A45" stroke-linejoin="round"></path>
                <path d="M256.996363,194.543028 L177.969892,194.543028 L198.23309,131.848887 L271.695286,131.848887 C272.988078,131.848887 274.207923,132.467738 274.969819,133.511293 C275.731715,134.558891 275.950558,135.905804 275.549346,137.135418 L256.996363,194.543028 Z" id="Fill-134" fill="#ADBBC7"></path>
                <path d="M256.996363,194.543028 L177.969892,194.543028 L198.23309,131.848887 L271.695286,131.848887 C272.988078,131.848887 274.207923,132.467738 274.969819,133.511293 C275.731715,134.558891 275.950558,135.905804 275.549346,137.135418 L256.996363,194.543028 L256.996363,194.543028 Z" id="Stroke-136" stroke="#4F4A45" stroke-linejoin="round"></path>
                <polygon id="Fill-138" fill="#CBD8DE" points="251.684163 131.848887 198.2339 131.848887 177.970703 194.543028 188.86825 194.543028"></polygon>
                <path d="M256.996363,194.543028 L173.917253,194.543028 L173.917253,204.654987 L248.891084,204.654987 C253.36925,204.654987 256.996363,201.034906 256.996363,196.56542 L256.996363,194.543028 Z" id="Fill-140" fill="#CBD8DE"></path>
                <path d="M256.996363,194.543028 L173.917253,194.543028 L173.917253,204.654987 L248.891084,204.654987 C253.36925,204.654987 256.996363,201.034906 256.996363,196.56542 L256.996363,194.543028 L256.996363,194.543028 Z" id="Stroke-142" stroke="#4F4A45" stroke-linejoin="round"></path>
                <path d="M173.917253,194.543028 L133.390857,194.543028 L133.390857,196.56542 C133.390857,201.034906 137.01797,204.654987 141.496137,204.654987 L173.917253,204.654987 L173.917253,194.543028 Z" id="Fill-144" fill="#E4EDF1"></path>
                <path d="M173.917253,194.543028 L133.390857,194.543028 L133.390857,196.56542 C133.390857,201.034906 137.01797,204.654987 141.496137,204.654987 L173.917253,204.654987 L173.917253,194.543028 L173.917253,194.543028 Z" id="Stroke-146" stroke="#4F4A45" stroke-linejoin="round"></path>
                <path d="M234.06207,160.964046 C234.037755,158.448191 236.116759,157.238801 236.214022,157.182174 C235.042809,155.475275 233.219121,155.240678 232.570699,155.212364 C231.022591,155.054618 229.54743,156.12244 228.757165,156.12244 C227.975006,156.12244 226.759214,155.236633 225.474527,155.256857 C223.784577,155.28517 222.22431,156.239739 221.357046,157.748443 C219.5982,160.79012 220.907203,165.291964 222.617416,167.759282 C223.45226,168.968672 224.453262,170.323675 225.758212,170.271093 C227.022636,170.222555 227.496794,169.458091 229.020587,169.458091 C230.544379,169.458091 230.973959,170.271093 232.307278,170.246824 C233.664912,170.2266 234.524071,169.021254 235.354862,167.807819 C236.315338,166.408324 236.708444,165.053322 236.73276,164.980516 C236.700339,164.968382 234.090439,163.96932 234.06207,160.964046" id="Fill-148" fill="#EDF2F4"></path>
                <path d="M234.06207,160.964046 C234.037755,158.448191 236.116759,157.238801 236.214022,157.182174 C235.042809,155.475275 233.219121,155.240678 232.570699,155.212364 C231.022591,155.054618 229.54743,156.12244 228.757165,156.12244 C227.975006,156.12244 226.759214,155.236633 225.474527,155.256857 C223.784577,155.28517 222.22431,156.239739 221.357046,157.748443 C219.5982,160.79012 220.907203,165.291964 222.617416,167.759282 C223.45226,168.968672 224.453262,170.323675 225.758212,170.271093 C227.022636,170.222555 227.496794,169.458091 229.020587,169.458091 C230.544379,169.458091 230.973959,170.271093 232.307278,170.246824 C233.664912,170.2266 234.524071,169.021254 235.354862,167.807819 C236.315338,166.408324 236.708444,165.053322 236.73276,164.980516 C236.700339,164.968382 234.090439,163.96932 234.06207,160.964046 L234.06207,160.964046 Z" id="Stroke-150" stroke="#4F4A45" stroke-linejoin="round"></path>
                <path d="M230.654611,150.050412 L232.482352,148.226214" id="Stroke-152" stroke="#4F4A45" stroke-linecap="round" stroke-linejoin="round"></path>
                <path d="M256.996363,194.543028 L177.969892,194.543028 L198.23309,131.848887 L271.695286,131.848887 C272.988078,131.848887 274.207923,132.467738 274.969819,133.511293 C275.731715,134.558891 275.950558,135.905804 275.549346,137.135418 L256.996363,194.543028 L256.996363,194.543028 Z" id="Stroke-154" stroke="#4F4A45" stroke-linejoin="round"></path>
                <path d="M48.6027493,117.201513 C46.2279025,119.571756 46.2279025,123.4143 48.6027493,125.780498 L52.1650194,129.335863 C54.5358136,131.706106 54.5358136,135.54865 52.1650194,137.914848 L48.6027493,141.470213 C46.2279025,143.840456 46.2279025,147.683 48.6027493,150.049198" id="Stroke-156" stroke="#FFFFFF" stroke-linecap="round" stroke-linejoin="round"></path>
                <path d="M63.9740057,117.201513 C61.599159,119.571756 61.599159,123.4143 63.9740057,125.780498 L67.5362759,129.335863 C69.90707,131.706106 69.90707,135.54865 67.5362759,137.914848 L63.9740057,141.470213 C61.599159,143.840456 61.599159,147.683 63.9740057,150.049198" id="Stroke-158" stroke="#FFFFFF" stroke-linecap="round" stroke-linejoin="round"></path>
                <path d="M83.4996229,210.722162 C83.4996229,212.954882 70.7986507,214.766945 55.1311463,214.766945 C39.4636419,214.766945 26.7626697,212.954882 26.7626697,210.722162 C26.7626697,208.489441 39.4636419,206.677378 55.1311463,206.677378 C70.7986507,206.677378 83.4996229,208.489441 83.4996229,210.722162" id="Fill-160" fill="#E4EDF1"></path>
                <path d="M36.8942685,200.610203 C27.9541457,200.610203 20.6837104,193.353862 20.6837104,184.43107 C20.6837104,175.508278 27.9541457,168.251937 36.8942685,168.251937 L36.8942685,176.341503 C32.4242071,176.341503 28.7889894,179.969674 28.7889894,184.43107 C28.7889894,188.892466 32.4242071,192.520637 36.8942685,192.520637 L36.8942685,200.610203 Z" id="Fill-162" fill="#FFFFFF"></path>
                <path d="M36.8942685,200.610203 C27.9541457,200.610203 20.6837104,193.353862 20.6837104,184.43107 C20.6837104,175.508278 27.9541457,168.251937 36.8942685,168.251937 L36.8942685,176.341503 C32.4242071,176.341503 28.7889894,179.969674 28.7889894,184.43107 C28.7889894,188.892466 32.4242071,192.520637 36.8942685,192.520637 L36.8942685,200.610203 L36.8942685,200.610203 Z" id="Stroke-164" stroke="#4F4A45" stroke-linejoin="round"></path>
                <path d="M77.1673737,204.654987 C77.1673737,206.887707 75.3517912,208.69977 73.1147342,208.69977 L41.200198,208.69977 C38.963141,208.69977 37.1475584,206.887707 37.1475584,204.654987 L37.1475584,162.184762 C37.1475584,159.952041 38.963141,158.139978 41.200198,158.139978 L73.1147342,158.139978 C75.3517912,158.139978 77.1673737,159.952041 77.1673737,162.184762 L77.1673737,204.654987 Z" id="Fill-166" fill="#FFFFFF"></path>
                <path d="M77.1673737,204.654987 C77.1673737,206.887707 75.3517912,208.69977 73.1147342,208.69977 L41.200198,208.69977 C38.963141,208.69977 37.1475584,206.887707 37.1475584,204.654987 L37.1475584,162.184762 C37.1475584,159.952041 38.963141,158.139978 41.200198,158.139978 L73.1147342,158.139978 C75.3517912,158.139978 77.1673737,159.952041 77.1673737,162.184762 L77.1673737,204.654987 L77.1673737,204.654987 Z" id="Stroke-168" stroke="#4F4A45" stroke-linejoin="round"></path>
                <path d="M62.9831354,182.408678 C62.9831354,182.408678 69.8645173,179.278016 69.8645173,174.25035 C69.8645173,169.214595 63.7612422,168.826296 62.9831354,173.862051 C62.2050286,168.826296 56.1017535,169.214595 56.1017535,174.634605 C56.1017535,180.054615 62.9831354,182.408678 62.9831354,182.408678" id="Fill-170" fill="#E05B4A"></path>
                <path d="M49.8120569,172.29672 L49.8120569,180.386287" id="Stroke-172" stroke="#4F4A45" stroke-linecap="round" stroke-linejoin="round"></path>
                <polyline id="Stroke-174" stroke="#4F4A45" stroke-linecap="round" stroke-linejoin="round" points="46.7725773 194.543028 46.7725773 186.453462 52.8515366 194.543028 52.8515366 186.453462"></polyline>
                <polyline id="Stroke-176" stroke="#4F4A45" stroke-linecap="round" stroke-linejoin="round" points="59.9436557 186.453462 62.9831354 190.498245 66.022615 186.453462"></polyline>
                <path d="M62.9831354,194.543028 L62.9831354,190.498245" id="Stroke-178" stroke="#4F4A45" stroke-linecap="round" stroke-linejoin="round"></path>
                <path d="M47.7857372,172.29672 L51.8383767,172.29672" id="Stroke-180" stroke="#4F4A45" stroke-linecap="round" stroke-linejoin="round"></path>
                <path d="M47.7857372,180.386287 L51.8383767,180.386287" id="Stroke-182" stroke="#4F4A45" stroke-linecap="round" stroke-linejoin="round"></path>
            </g>
        </g>
    </g>
</svg>