<?xml version="1.0" encoding="UTF-8"?>
<svg width="285px" height="285px" viewBox="0 0 285 285" version="1.1" xmlns="http://www.w3.org/2000/svg" xmlns:xlink="http://www.w3.org/1999/xlink">
    <!-- Generator: Sketch 42 (36781) - http://www.bohemiancoding.com/sketch -->
    <title>Millenial</title>
    <desc>Created with Sketch.</desc>
    <defs></defs>
    <g id="Page-1" stroke="none" stroke-width="1" fill="none" fill-rule="evenodd">
        <g id="Millenial">
            <g transform="translate(1.000000, 51.000000)">
                <path d="M215.179251,173.108046 C223.285878,157.913805 227.927204,140.635712 227.927204,122.272018 C227.927204,61.9068352 178.345786,12.9716475 117.184071,12.9716475 C56.0223564,12.9716475 6.43675364,61.9068352 6.43675364,122.272018 C6.43675364,140.635712 11.0780799,157.913805 19.1888917,173.108046 L215.179251,173.108046 Z" id="Fill-4" fill="#C1F3F9"></path>
                <path d="M8.37029081,173.108046 L0,173.108046" id="Stroke-6" stroke="#504B46" stroke-linecap="round"></path>
                <path d="M234.368143,173.108046 L225.997852,173.108046" id="Stroke-8" stroke="#504B46" stroke-linecap="round"></path>
                <path d="M16.7405816,173.108046 L217.627561,173.108046" id="Stroke-10" stroke="#504B46" stroke-linecap="round"></path>
                <path d="M188.339914,179.347126 C187.841881,179.347126 187.335479,179.301373 186.829076,179.214026 L168.280512,175.840763 C167.891293,175.770054 167.510445,175.670228 167.137967,175.549606 C154.779233,171.460929 146.480089,160.014296 146.480089,147.061965 L146.480089,135.673563 C146.480089,131.085759 150.23835,127.354789 154.85038,127.354789 C159.466595,127.354789 163.220671,131.085759 163.220671,135.673563 L163.220671,147.061965 C163.220671,152.681297 166.7906,157.739111 172.097364,159.652429 L189.83401,162.842679 C192.039582,163.246139 193.948008,164.473159 195.220293,166.29913 C196.488392,168.12926 196.969683,170.337894 196.567909,172.521572 C195.835509,176.481309 192.378579,179.347126 188.339914,179.347126 L188.339914,179.347126 Z" id="Fill-13" fill="#B78B7C"></path>
                <path d="M188.339914,179.347126 C187.841881,179.347126 187.335479,179.301373 186.829076,179.214026 L168.280512,175.840763 C167.891293,175.770054 167.510445,175.670228 167.137967,175.549606 C154.779233,171.460929 146.480089,160.014296 146.480089,147.061965 L146.480089,135.673563 C146.480089,131.085759 150.23835,127.354789 154.85038,127.354789 C159.466595,127.354789 163.220671,131.085759 163.220671,135.673563 L163.220671,147.061965 C163.220671,152.681297 166.7906,157.739111 172.097364,159.652429 L189.83401,162.842679 C192.039582,163.246139 193.948008,164.473159 195.220293,166.29913 C196.488392,168.12926 196.969683,170.337894 196.567909,172.521572 C195.835509,176.481309 192.378579,179.347126 188.339914,179.347126 L188.339914,179.347126 Z" id="Stroke-15" stroke="#4F4A45"></path>
                <path d="M79.5177627,143.992337 L79.5177627,173.108046 L146.480089,173.108046 L146.480089,143.992337 L167.405816,143.992337 L167.405816,141.912644 C167.405816,118.940349 148.66892,100.318774 125.554362,100.318774 L100.44349,100.318774 C77.3289317,100.318774 58.5920357,118.940349 58.5920357,141.912644 L58.5920357,143.992337 L79.5177627,143.992337 Z" id="Fill-17" fill="#99D56A"></path>
                <path d="M167.405816,141.912644 C167.405816,118.940349 148.66892,100.318774 125.554362,100.318774 L100.44349,100.318774 C77.3289317,100.318774 58.5920357,118.940349 58.5920357,141.912644 L58.5920357,146.072031 C58.5920357,123.099736 77.3289317,116.956322 100.44349,116.956322 L125.554362,116.956322 C148.66892,116.956322 167.405816,123.099736 167.405816,146.072031 L167.405816,141.912644 Z" id="Fill-19" fill="#B3E090"></path>
                <path d="M112.998926,125.275096 C124.554112,125.275096 133.924653,115.962228 133.924653,104.478161 L133.924653,101.154811 C131.221049,100.609931 128.421187,100.318774 125.554362,100.318774 L100.44349,100.318774 C97.5766652,100.318774 94.7768029,100.609931 92.0731989,101.154811 L92.0731989,104.478161 C92.0731989,115.962228 101.44374,125.275096 112.998926,125.275096" id="Fill-21" fill="#FFE086"></path>
                <path d="M133.924653,102.398467 L133.924653,104.478161 C133.924653,115.962228 124.554112,125.275096 112.998926,125.275096 C101.44374,125.275096 92.0731989,115.962228 92.0731989,104.478161 L92.0731989,102.398467" id="Stroke-23" stroke="#504B46" stroke-linecap="round" stroke-linejoin="round"></path>
                <path d="M146.480089,133.59387 L146.480089,131.514176" id="Stroke-25" stroke="#504B46" stroke-linecap="round" stroke-linejoin="round"></path>
                <polyline id="Stroke-27" stroke="#504B46" stroke-linecap="round" stroke-linejoin="round" points="79.5177627 139.83295 79.5177627 173.108046 146.480089 173.108046 146.480089 139.83295"></polyline>
                <path d="M146.480089,143.992337 L146.480089,143.992337 L167.405816,143.992337 L167.405816,141.912644 C167.405816,118.940349 148.66892,100.318774 125.554362,100.318774 L100.44349,100.318774 C77.3289317,100.318774 58.5920357,118.940349 58.5920357,141.912644 L58.5920357,143.992337 L79.5177627,143.992337" id="Stroke-29" stroke="#504B46" stroke-linecap="round" stroke-linejoin="round"></path>
                <path d="M79.5177627,148.151724 L79.5177627,143.992337" id="Fill-31" fill="#EDF2F4"></path>
                <path d="M79.5177627,148.151724 L79.5177627,143.992337" id="Stroke-33" stroke="#504B46" stroke-linecap="round" stroke-linejoin="round"></path>
                <path d="M125.554362,104.039346 C125.554362,108.211211 123.457604,112.108556 119.963008,114.421175 C115.744381,117.216284 110.253471,117.216284 106.034844,114.421175 C102.540248,112.108556 100.44349,108.211211 100.44349,104.039346 L100.44349,85.7629992 L125.554362,85.7629992 L125.554362,104.039346 Z" id="Fill-35" fill="#B78B7C"></path>
                <path d="M125.554362,104.039346 C125.554362,108.211211 123.457604,112.108556 119.963008,114.421175 C115.744381,117.216284 110.253471,117.216284 106.034844,114.421175 C102.540248,112.108556 100.44349,108.211211 100.44349,104.039346 L100.44349,85.7629992 L125.554362,85.7629992 L125.554362,104.039346 L125.554362,104.039346 Z" id="Stroke-37" stroke="#504B46" stroke-linecap="round" stroke-linejoin="round"></path>
                <path d="M100.44349,99.8728877 C100.761561,100.014307 101.058706,100.172364 101.393518,100.301305 C108.420377,103.096413 117.577475,103.096413 124.604334,100.301305 C124.939146,100.172364 125.236291,100.014307 125.554362,99.8728877 L125.554362,85.7600877 L100.44349,85.7600877 L100.44349,99.8728877 Z" id="Fill-39" fill="#A56F5B"></path>
                <path d="M125.554362,104.039346 C125.554362,108.211211 123.457604,112.108556 119.963008,114.421175 C115.744381,117.216284 110.253471,117.216284 106.034844,114.421175 C102.540248,112.108556 100.44349,108.211211 100.44349,104.039346 L100.44349,85.7629992 L125.554362,85.7629992 L125.554362,104.039346 L125.554362,104.039346 Z" id="Stroke-41" stroke="#504B46" stroke-linecap="round" stroke-linejoin="round"></path>
                <path d="M79.5177627,133.59387 L79.5177627,131.514176" id="Stroke-43" stroke="#504B46" stroke-linecap="round" stroke-linejoin="round"></path>
                <polygon id="Fill-45" fill="#B78B7C" points="62.7771811 173.108046 79.5177627 173.108046 79.5177627 143.992337 62.7771811 143.992337"></polygon>
                <polygon id="Stroke-47" stroke="#504B46" stroke-linecap="round" stroke-linejoin="round" points="62.7771811 173.108046 79.5177627 173.108046 79.5177627 143.992337 62.7771811 143.992337"></polygon>
                <path d="M205.072125,179.347126 C205.072125,181.643108 203.19718,183.506513 200.88698,183.506513 L184.146398,183.506513 C181.836198,183.506513 179.961252,181.643108 179.961252,179.347126 L179.961252,141.912644 C179.961252,139.616662 181.836198,137.753257 184.146398,137.753257 L200.88698,137.753257 C203.19718,137.753257 205.072125,139.616662 205.072125,141.912644 L205.072125,179.347126 Z" id="Fill-48" fill="#E3ECF0"></path>
                <path d="M205.072125,179.347126 C205.072125,181.643108 203.19718,183.506513 200.88698,183.506513 L184.146398,183.506513 C181.836198,183.506513 179.961252,181.643108 179.961252,179.347126 L179.961252,141.912644 C179.961252,139.616662 181.836198,137.753257 184.146398,137.753257 L200.88698,137.753257 C203.19718,137.753257 205.072125,139.616662 205.072125,141.912644 L205.072125,179.347126 L205.072125,179.347126 Z" id="Stroke-49" stroke="#504B46" stroke-linecap="round" stroke-linejoin="round"></path>
                <path d="M190.424116,146.072031 C190.424116,147.220021 189.486643,148.151724 188.331543,148.151724 C187.176443,148.151724 186.238971,147.220021 186.238971,146.072031 C186.238971,144.92404 187.176443,143.992337 188.331543,143.992337 C189.486643,143.992337 190.424116,144.92404 190.424116,146.072031" id="Fill-50" fill="#504B46"></path>
                <path d="M208.932085,177.267433 L196.284575,177.267433 C190.735072,177.267433 186.240226,172.796092 186.240226,167.284904 L186.240226,162.29364 C186.240226,156.782452 190.735072,152.311111 196.284575,152.311111 L208.932085,152.311111 C212.154646,160.32209 212.154646,169.256454 208.932085,177.267433" id="Fill-51" fill="#B78B7C"></path>
                <path d="M190.424116,173.523985 L190.424116,168.53272 C190.424116,163.017373 194.923147,158.550192 200.468465,158.550192 L210.759738,158.550192 C210.353778,156.433064 209.746932,154.340892 208.930829,152.311111 L196.28332,152.311111 C190.738002,152.311111 186.238971,156.778293 186.238971,162.29364 L186.238971,167.284904 C186.238971,170.712239 187.979991,173.731954 190.629188,175.528809 C190.495263,174.879945 190.424116,174.210284 190.424116,173.523985" id="Fill-52" fill="#CCA196"></path>
                <path d="M209.972512,174.282241 C209.449368,176.04998 207.812977,177.268681 205.958957,177.268681 L196.282901,177.268681 C190.737583,177.268681 186.238552,172.79734 186.238552,167.286152 L186.238552,162.294888 C186.238552,156.779541 190.737583,152.312359 196.282901,152.312359 L205.958957,152.312359 C207.817162,152.312359 209.449368,153.5269 209.972512,155.294639 C211.809791,161.492126 211.809791,168.084754 209.972512,174.282241 L209.972512,174.282241 Z" id="Stroke-53" stroke="#504B46" stroke-linecap="round" stroke-linejoin="round"></path>
                <path d="M282.497315,88.994427 C282.497315,94.3101235 278.161504,98.6192484 272.812888,98.6192484 L240.168754,98.6192484 L213.530304,122.685461 L213.534489,98.6192484 L191.738252,98.6192484 C186.389636,98.6192484 182.053825,94.3101235 182.053825,88.994427 L182.053825,26.7575197 C182.053825,21.4418231 186.389636,17.1326982 191.738252,17.1326982 L272.812888,17.1326982 C278.161504,17.1326982 282.497315,21.4418231 282.497315,26.7575197 L282.497315,88.994427 Z" id="Fill-54" fill="#FFFFFF"></path>
                <path d="M282.497315,88.994427 C282.497315,94.3101235 278.161504,98.6192484 272.812888,98.6192484 L240.168754,98.6192484 L213.530304,122.685461 L213.534489,98.6192484 L191.738252,98.6192484 C186.389636,98.6192484 182.053825,94.3101235 182.053825,88.994427 L182.053825,26.7575197 C182.053825,21.4418231 186.389636,17.1326982 191.738252,17.1326982 L272.812888,17.1326982 C278.161504,17.1326982 282.497315,21.4418231 282.497315,26.7575197 L282.497315,88.994427 L282.497315,88.994427 Z" id="Stroke-55" stroke="#504B46" stroke-linejoin="round"></path>
                <path d="M233.614817,85.6078541 C233.614817,85.6078541 261.960806,72.7761453 261.960806,52.1455859 C261.960806,31.5067077 236.812268,29.9178219 233.614817,50.5567001 C230.417365,29.9136625 205.268827,31.5025484 205.268827,53.7303123 C205.268827,75.9539169 233.614817,85.6078541 233.614817,85.6078541" id="Fill-56" fill="#E05C4A"></path>
                <path d="M225.189282,46.4567923 C228.198401,46.4567923 231.03593,47.1347724 233.61398,48.2869226 C228.407659,31.1627264 206.029686,33.737387 206.029686,54.7131755 C206.029686,56.0982513 206.142685,57.4375739 206.347757,58.7269839 C209.528468,51.5104475 216.756214,46.4567923 225.189282,46.4567923" id="Fill-57" fill="#E88074"></path>
                <path d="M242.039933,46.4567923 C239.030813,46.4567923 236.193285,47.1347724 233.615235,48.2869226 C238.821556,31.1627264 261.199528,33.737387 261.199528,54.7131755 C261.199528,56.0982513 261.08653,57.4375739 260.881457,58.7269839 C257.700747,51.5104475 250.473001,46.4567923 242.039933,46.4567923" id="Fill-58" fill="#E88074"></path>
                <path d="M233.614817,85.6078541 C233.614817,85.6078541 261.960806,72.7761453 261.960806,52.1455859 C261.960806,31.5067077 236.812268,29.9178219 233.614817,50.5567001 C230.417365,29.9136625 205.268827,31.5025484 205.268827,53.7303123 C205.268827,75.9539169 233.614817,85.6078541 233.614817,85.6078541 L233.614817,85.6078541 Z" id="Stroke-59" stroke="#504B46" stroke-linejoin="round"></path>
                <path d="M152.757807,52.490815 C152.757807,48.6184257 150.083499,45.3949008 146.480089,44.4673575 L146.480089,42.0923476 C146.480089,23.7161759 131.488898,8.8172518 112.998926,8.8172518 C94.5089536,8.8172518 79.5177627,23.7161759 79.5177627,42.0923476 L79.5177627,44.4673575 C75.9143525,45.3949008 73.2400446,48.6184257 73.2400446,52.490815 C73.2400446,56.3964794 75.956204,59.64912 79.6098359,60.5433882 C80.5640491,78.0710449 95.1241699,92.0049913 112.998926,92.0049913 C130.873682,92.0049913 145.433803,78.0710449 146.388016,60.5433882 C150.041648,59.64912 152.757807,56.3964794 152.757807,52.490815" id="Fill-60" fill="#B78B7C"></path>
                <path d="M152.757807,52.490815 C152.757807,48.6184257 150.083499,45.3949008 146.480089,44.4673575 L146.480089,42.0923476 C146.480089,23.7161759 131.488898,8.8172518 112.998926,8.8172518 C94.5089536,8.8172518 79.5177627,23.7161759 79.5177627,42.0923476 L79.5177627,44.4673575 C75.9143525,45.3949008 73.2400446,48.6184257 73.2400446,52.490815 C73.2400446,56.3964794 75.956204,59.64912 79.6098359,60.5433882 C80.5640491,78.0710449 95.1241699,92.0049913 112.998926,92.0049913 C130.873682,92.0049913 145.433803,78.0710449 146.388016,60.5433882 C150.041648,59.64912 152.757807,56.3964794 152.757807,52.490815 L152.757807,52.490815 Z" id="Stroke-61" stroke="#504B46" stroke-linecap="round" stroke-linejoin="round"></path>
                <path d="M133.296881,22.1975838 L133.296881,27.8127562 C133.296881,32.4629508 137.615951,36.2355148 142.294944,36.2355148 L142.294944,44.6582734 C142.294944,47.7611761 144.822772,50.2734458 147.94489,50.2734458 L154.85038,50.2734458 L154.85038,25.7621784 C154.85038,16.4576297 148.187629,8.15965272 138.825458,8.15965272 L138.825458,8.79603893 C138.825458,4.21239448 135.088123,0.493902529 130.471908,0.493902529 L91.9811257,0.493902529 C85.1551536,0.493902529 79.6223914,5.99261211 79.6223914,12.7765723 L79.6223914,14.5318336 C74.9433988,14.5318336 71.1474719,18.3043975 71.1474719,22.9545922 L71.1474719,50.2734458 L79.6223914,50.2734458 C82.7445098,50.2734458 85.7954808,47.7611761 85.7954808,44.6582734 L85.7954808,36.2355148 C102.74532,41.8506872 133.296881,33.4279286 133.296881,22.1975838" id="Fill-62" fill="#775750"></path>
                <path d="M133.924653,21.2904215 C133.522879,25.4498084 131.279641,36.2350989 142.294944,36.2350989 L142.294944,44.6578575 C142.294944,47.7607602 144.822772,50.2730299 147.94489,50.2730299 L154.85038,50.2730299 L154.85038,25.4498084 C154.85038,16.1452598 148.187629,8.15923678 138.825458,8.15923678 C138.825458,12.3186238 140.026595,0.49348659 130.471908,0.49348659 L91.9811257,0.49348659 C85.91685,0.49348659 79.6223914,4.44490421 79.6223914,15.051341 C74.9433988,15.051341 71.1474719,18.3039816 71.1474719,22.9541762 L71.1474719,50.2730299 L79.6223914,50.2730299 C82.7445098,50.2730299 85.7954808,47.7607602 85.7954808,44.6578575 L85.7954808,36.2350989 C102.74532,41.8502713 133.924653,32.5207663 133.924653,21.2904215 L133.924653,21.2904215 Z" id="Stroke-63" stroke="#504B46" stroke-linejoin="round"></path>
                <path d="M106.721208,54.5705085 C105.427998,52.1289484 103.159649,50.4111215 100.44349,50.4111215 C97.7273304,50.4111215 95.4589816,52.1289484 94.1657716,54.5705085" id="Stroke-64" stroke="#504B46" stroke-linecap="round" stroke-linejoin="round"></path>
                <path d="M131.83208,54.5705085 C130.53887,52.1289484 128.270522,50.4111215 125.554362,50.4111215 C122.838203,50.4111215 120.569854,52.1289484 119.276644,54.5705085" id="Stroke-65" stroke="#504B46" stroke-linecap="round" stroke-linejoin="round"></path>
                <path d="M100.129604,73.2877499 C102.711839,75.72931 107.256906,77.4471369 112.68504,77.4471369 C118.113174,77.4471369 122.658242,75.72931 125.240476,73.2877499" id="Stroke-66" stroke="#504B46" stroke-linecap="round" stroke-linejoin="round"></path>
                <path d="M96.2583443,67.0486694 C96.2583443,69.344651 94.3833992,71.2080564 92.0731989,71.2080564 C89.7629987,71.2080564 87.8880535,69.344651 87.8880535,67.0486694 C87.8880535,64.7526878 89.7629987,62.8892825 92.0731989,62.8892825 C94.3833992,62.8892825 96.2583443,64.7526878 96.2583443,67.0486694" id="Fill-67" fill="#A56F5B"></path>
                <path d="M138.109798,67.0486694 C138.109798,69.344651 136.234853,71.2080564 133.924653,71.2080564 C131.614453,71.2080564 129.739508,69.344651 129.739508,67.0486694 C129.739508,64.7526878 131.614453,62.8892825 133.924653,62.8892825 C136.234853,62.8892825 138.109798,64.7526878 138.109798,67.0486694" id="Fill-68" fill="#A56F5B"></path>
                <path d="M111.95264,12.9766388 C129.915284,12.9766388 145.693282,18.2341039 154.85038,26.1743736 L154.85038,25.4506403 C154.85038,16.1460916 148.187629,8.16006866 138.829643,8.16006866 C138.829643,8.26405333 138.829643,8.31396598 138.833829,8.39715372 C138.612016,6.42560429 137.247658,0.494318467 130.471908,0.494318467 L91.9811257,0.494318467 C85.91685,0.494318467 79.6223914,4.4415767 79.6223914,15.0521729 C74.9433988,15.0521729 71.1474719,18.3006541 71.1474719,22.9550081 L71.1474719,24.5189376 C80.5096422,17.5186893 95.2790203,12.9766388 111.95264,12.9766388" id="Fill-69" fill="#87625D"></path>
                <path d="M133.924653,21.2904215 C133.522879,25.4498084 131.279641,36.2350989 142.294944,36.2350989 L142.294944,44.6578575 C142.294944,47.7607602 144.822772,50.2730299 147.94489,50.2730299 L154.85038,50.2730299 L154.85038,25.4498084 C154.85038,16.1452598 148.187629,8.15923678 138.825458,8.15923678 C138.825458,12.3186238 140.026595,0.49348659 130.471908,0.49348659 L91.9811257,0.49348659 C85.91685,0.49348659 79.6223914,4.44490421 79.6223914,15.051341 C74.9433988,15.051341 71.1474719,18.3039816 71.1474719,22.9541762 L71.1474719,50.2730299 L79.6223914,50.2730299 C82.7445098,50.2730299 85.7954808,47.7607602 85.7954808,44.6578575 L85.7954808,36.2350989 C102.74532,41.8502713 133.924653,32.5207663 133.924653,21.2904215 L133.924653,21.2904215 Z" id="Stroke-70" stroke="#504B46" stroke-linejoin="round"></path>
            </g>
        </g>
    </g>
</svg>