<?xml version="1.0" encoding="UTF-8"?>
<svg width="285px" height="285px" viewBox="0 0 285 285" version="1.1" xmlns="http://www.w3.org/2000/svg" xmlns:xlink="http://www.w3.org/1999/xlink">
    <!-- Generator: Sketch 42 (36781) - http://www.bohemiancoding.com/sketch -->
    <title>VR</title>
    <desc>Created with Sketch.</desc>
    <defs></defs>
    <g id="Page-1" stroke="none" stroke-width="1" fill="none" fill-rule="evenodd">
        <g id="VR">
            <g id="VR-Player" transform="translate(5.000000, 13.000000)">
                <path d="M264.460854,227.076778 C271.239819,210.908415 274.998284,193.171768 274.998284,174.562897 C274.998284,99.152069 213.532804,38.0233673 137.702783,38.0233673 C61.8770519,38.0233673 0.407281761,99.152069 0.407281761,174.562897 C0.407281761,193.171768 4.1657461,210.908415 10.9490019,227.076778 L264.460854,227.076778 Z" id="Fill-1" fill="#D4FFF1"></path>
                <path d="M26.1519044,227.076778 L17.5709356,227.076778" id="Stroke-4" stroke="#504B46" stroke-linecap="round"></path>
                <path d="M238.166191,227.076778 C246.47686,211.381048 251.235007,193.532688 251.235007,174.562897 C251.235007,112.205348 200.405638,61.6550436 137.704499,61.6550436 C75.0033599,61.6550436 24.1697006,112.205348 24.1697006,174.562897 C24.1697006,193.532688 28.9278478,211.381048 37.2428066,227.076778 L238.166191,227.076778 Z" id="Fill-10" fill="#B8F4E1"></path>
                <path d="M257.838062,227.076778 L249.257094,227.076778" id="Stroke-6" stroke="#504B46" stroke-linecap="round"></path>
                <path d="M34.7328732,227.076778 L240.676125,227.076778" id="Stroke-8" stroke="#504B46" stroke-linecap="round"></path>
                <path d="M75.4924751,255.005123 C75.4924751,257.376884 67.8082175,259.301791 58.3305374,259.301791 C48.8528574,259.301791 41.1685998,257.376884 41.1685998,255.005123 C41.1685998,252.633362 48.8528574,250.708455 58.3305374,250.708455 C67.8082175,250.708455 75.4924751,252.633362 75.4924751,255.005123 L75.4924751,255.005123 Z" id="Fill-13" fill="#E4EDF1"></path>
                <path d="M229.949914,255.005123 C229.949914,257.376884 222.265656,259.301791 212.787976,259.301791 C203.310296,259.301791 195.626038,257.376884 195.626038,255.005123 C195.626038,252.633362 203.310296,250.708455 212.787976,250.708455 C222.265656,250.708455 229.949914,252.633362 229.949914,255.005123" id="Fill-15" fill="#E4EDF1"></path>
                <path d="M103.380624,197.000099 L103.380624,227.076778 L172.028374,227.076778 L172.028374,197.000099 L193.480796,197.000099 L193.480796,194.851765 C193.480796,171.121265 174.272298,151.885081 150.575952,151.885081 L124.833046,151.885081 C101.1367,151.885081 81.9282017,171.121265 81.9282017,194.851765 L81.9282017,197.000099 L103.380624,197.000099 Z" id="Fill-17" fill="#00A4CA"></path>
                <path d="M193.480796,194.851765 C193.480796,171.121265 174.272298,151.885081 150.575952,151.885081 L124.833046,151.885081 C101.1367,151.885081 81.9282017,171.121265 81.9282017,194.851765 L81.9282017,199.148433 C81.9282017,175.417934 101.1367,169.071754 124.833046,169.071754 L150.575952,169.071754 C174.272298,169.071754 193.480796,175.417934 193.480796,199.148433 L193.480796,194.851765 Z" id="Fill-19" fill="#45B7D4"></path>
                <path d="M137.704499,199.148433 C137.704499,199.148433 159.156921,168.044851 159.156921,156.181749 L159.156921,152.748711 C156.385268,152.185847 153.514934,151.885081 150.575952,151.885081 L124.833046,151.885081 C121.894064,151.885081 119.02373,152.185847 116.252077,152.748711 L116.252077,156.181749 C116.252077,168.044851 137.704499,199.148433 137.704499,199.148433" id="Fill-21" fill="#C5F6F4"></path>
                <path d="M159.156921,154.033415 L159.156921,156.181749 C159.156921,168.044851 137.704499,199.148433 137.704499,199.148433 C137.704499,199.148433 116.252077,168.044851 116.252077,156.181749 L116.252077,154.033415" id="Stroke-23" stroke="#504B46" stroke-linecap="round" stroke-linejoin="round"></path>
                <path d="M172.028374,197.000099 L172.028374,197.000099 L193.480796,197.000099 L193.480796,194.851765 C193.480796,171.121265 174.272298,151.885081 150.575952,151.885081 L124.833046,151.885081 C101.1367,151.885081 81.9282017,171.121265 81.9282017,194.851765 L81.9282017,197.000099 L103.380624,197.000099" id="Stroke-25" stroke="#504B46" stroke-linecap="round" stroke-linejoin="round"></path>
                <path d="M150.575952,155.728451 C150.575952,162.83514 137.704499,184.112242 137.704499,184.112242 C137.704499,184.112242 124.833046,162.826547 124.833046,155.728451 L124.833046,136.848889 L150.575952,136.848889 L150.575952,155.728451 Z" id="Fill-27" fill="#FFDFD1"></path>
                <path d="M172.028374,186.258428 L172.028374,184.110094" id="Stroke-29" stroke="#504B46" stroke-linecap="round" stroke-linejoin="round"></path>
                <polyline id="Stroke-31" stroke="#504B46" stroke-linecap="round" stroke-linejoin="round" points="103.380624 192.703431 103.380624 227.076778 172.028374 227.076778 172.028374 192.703431"></polyline>
                <path d="M103.380624,201.296768 L103.380624,197.000099" id="Fill-33" fill="#EDF2F4"></path>
                <path d="M103.380624,201.296768 L103.380624,197.000099" id="Stroke-35" stroke="#504B46" stroke-linecap="round" stroke-linejoin="round"></path>
                <path d="M124.833046,151.424478 C125.159123,151.570565 125.463747,151.733838 125.806986,151.867035 C133.010709,154.754396 142.398289,154.754396 149.602012,151.867035 C149.945251,151.733838 150.249875,151.570565 150.575952,151.424478 L150.575952,136.845882 L124.833046,136.845882 L124.833046,151.424478 Z" id="Fill-37" fill="#FFCAB3"></path>
                <path d="M150.575952,155.728451 C150.575952,162.83514 137.704499,184.112242 137.704499,184.112242 C137.704499,184.112242 124.833046,162.826547 124.833046,155.728451 L124.833046,136.848889 L150.575952,136.848889 L150.575952,155.728451 L150.575952,155.728451 Z" id="Stroke-39" stroke="#504B46" stroke-linecap="round" stroke-linejoin="round"></path>
                <path d="M103.380624,186.258428 L103.380624,184.110094" id="Stroke-41" stroke="#504B46" stroke-linecap="round" stroke-linejoin="round"></path>
                <path d="M198.789413,239.2617 C192.448077,239.2617 187.084971,237.7149 182.850263,234.655672 C173.26103,227.733739 172.029661,215.488234 172.029661,205.593006 L172.029661,196.999669 L189.191599,196.999669 L189.191599,205.593006 C189.191599,213.8555 190.435839,218.942755 192.881416,220.717279 C193.760965,221.348889 195.502902,222.105103 198.836608,222.105103 C202.818177,222.105103 208.043987,221.035233 214.363871,218.925568 L216.397561,218.242398 L221.829314,234.548255 L219.795624,235.231425 C211.660866,237.942623 204.7918,239.2617 198.789413,239.2617" id="Fill-43" fill="#FFDFD1"></path>
                <path d="M198.789413,239.2617 C192.448077,239.2617 187.084971,237.7149 182.850263,234.655672 C173.26103,227.733739 172.029661,215.488234 172.029661,205.593006 L172.029661,196.999669 L189.191599,196.999669 L189.191599,205.593006 C189.191599,213.8555 190.435839,218.942755 192.881416,220.717279 C193.760965,221.348889 195.502902,222.105103 198.836608,222.105103 C202.818177,222.105103 208.043987,221.035233 214.363871,218.925568 L216.397561,218.242398 L221.829314,234.548255 L219.795624,235.231425 C211.660866,237.942623 204.7918,239.2617 198.789413,239.2617 L198.789413,239.2617 Z" id="Stroke-45" stroke="#4F4A45"></path>
                <path d="M76.6195853,239.2617 C70.6171976,239.2617 63.7481321,237.942623 55.6133737,235.231425 L53.5796841,234.548255 L59.0114373,218.242398 L61.0451269,218.925568 C67.3693009,221.035233 72.595111,222.105103 76.5766805,222.105103 C79.9060964,222.105103 81.6480331,221.348889 82.5232919,220.717279 C84.9731585,218.942755 86.2173989,213.8555 86.2173989,205.593006 L86.2173989,196.999669 L103.379337,196.999669 L103.379337,205.593006 C103.379337,215.488234 102.147968,227.733739 92.5587349,234.655672 C88.3283173,237.7149 82.9652118,239.2617 76.6195853,239.2617" id="Fill-47" fill="#FFDFD1"></path>
                <path d="M76.6195853,239.2617 C70.6171976,239.2617 63.7481321,237.942623 55.6133737,235.231425 L53.5796841,234.548255 L59.0114373,218.242398 L61.0451269,218.925568 C67.3693009,221.035233 72.595111,222.105103 76.5766805,222.105103 C79.9060964,222.105103 81.6480331,221.348889 82.5232919,220.717279 C84.9731585,218.942755 86.2173989,213.8555 86.2173989,205.593006 L86.2173989,196.999669 L103.379337,196.999669 L103.379337,205.593006 C103.379337,215.488234 102.147968,227.733739 92.5587349,234.655672 C88.3283173,237.7149 82.9652118,239.2617 76.6195853,239.2617 L76.6195853,239.2617 Z" id="Stroke-49" stroke="#4F4A45"></path>
                <path d="M237.719123,230.294123 C234.479807,241.706075 222.616618,248.331538 211.221091,245.087553 C199.821274,241.843568 193.209638,229.958983 196.448953,218.547032 C199.688269,207.135081 211.551458,200.513915 222.946985,203.757899 C234.346802,206.997587 240.958439,218.882172 237.719123,230.294123 L237.719123,230.294123 Z" id="Stroke-51" stroke="#4F4A45"></path>
                <polygon id="Fill-53" fill="#6F7173" points="224.143601 215.263088 215.888709 212.912811 216.798292 202.10669 229.18063 205.629958"></polygon>
                <polygon id="Stroke-55" stroke="#4F4A45" stroke-linejoin="round" points="224.143601 215.263088 215.888709 212.912811 216.798292 202.10669 229.18063 205.629958"></polygon>
                <path d="M224.742124,236.795412 C223.725279,238.406663 221.773109,239.154283 219.945362,238.634387 L210.403325,235.918892 C204.932957,234.363498 201.757999,228.657522 203.311154,223.17927 L204.718433,218.220915 C206.271588,212.742663 211.969352,209.563128 217.439719,211.122819 L226.981757,213.838313 C228.813793,214.35821 230.079486,216.025317 230.096648,217.928741 C230.161006,224.601467 228.298935,231.153887 224.742124,236.795412" id="Fill-57" fill="#FFDFD1"></path>
                <path d="M224.742124,236.795412 C223.725279,238.406663 221.773109,239.154283 219.945362,238.634387 L210.403325,235.918892 C204.932957,234.363498 201.757999,228.657522 203.311154,223.17927 L204.718433,218.220915 C206.271588,212.742663 211.969352,209.563128 217.439719,211.122819 L226.981757,213.838313 C228.813793,214.35821 230.079486,216.025317 230.096648,217.928741 C230.161006,224.601467 228.298935,231.153887 224.742124,236.795412 L224.742124,236.795412 Z" id="Stroke-59" stroke="#504B46" stroke-linecap="round" stroke-linejoin="round"></path>
                <path d="M205.313952,232.605731 C205.365438,231.922561 205.485572,231.239391 205.678643,230.55622 L207.085922,225.593568 C208.639078,220.115316 214.336841,216.940078 219.807209,218.495472 L229.954204,221.382833 C230.057176,220.239919 230.104371,219.088412 230.09579,217.928312 C230.078628,216.020591 228.808645,214.35778 226.976608,213.837883 L217.438861,211.122389 C211.968494,209.562698 206.275021,212.742233 204.717575,218.220485 L203.310296,223.183137 C202.344937,226.586099 203.211615,230.074993 205.313952,232.605731" id="Fill-61" fill="#FFEFE9"></path>
                <path d="M224.739979,236.79842 C223.723134,238.409671 221.770963,239.157291 219.938926,238.633098 L210.40118,235.917603 C204.930812,234.362209 201.755854,228.66053 203.313299,223.182278 L204.720578,218.219626 C206.273734,212.741374 211.967206,209.566136 217.437574,211.12153 L226.979611,213.837024 C228.807358,214.356921 230.077341,216.024028 230.094503,217.927452 C230.128827,221.124174 229.71694,224.295115 228.888877,227.354343 C227.987875,230.675668 226.593468,233.859499 224.739979,236.79842 L224.739979,236.79842 Z" id="Stroke-63" stroke="#504B46" stroke-linecap="round" stroke-linejoin="round"></path>
                <path d="M230.351503,201.498711 C229.70364,203.780242 227.331002,205.107912 225.052755,204.459116 L220.925309,203.281828 C218.647062,202.633031 217.321302,200.256974 217.969165,197.975443 C218.617028,195.693912 220.989666,194.366241 223.272204,195.015038 L227.395359,196.192325 C229.677897,196.841122 230.999366,199.21718 230.351503,201.498711" id="Fill-65" fill="#FFDFD1"></path>
                <path d="M230.351503,201.498711 C229.70364,203.780242 227.331002,205.107912 225.052755,204.459116 L220.925309,203.281828 C218.647062,202.633031 217.321302,200.256974 217.969165,197.975443 C218.617028,195.693912 220.989666,194.366241 223.272204,195.015038 L227.395359,196.192325 C229.677897,196.841122 230.999366,199.21718 230.351503,201.498711 L230.351503,201.498711 Z" id="Stroke-67" stroke="#504B46" stroke-linecap="round" stroke-linejoin="round"></path>
                <path d="M37.6898751,230.294123 C40.9291908,241.706075 52.7923802,248.331538 64.1879068,245.087553 C75.5877238,241.843568 82.1993603,229.958983 78.9600446,218.547032 C75.7207288,207.135081 63.8575395,200.513915 52.4620129,203.757899 C41.0621958,206.997587 34.4505593,218.882172 37.6898751,230.294123 L37.6898751,230.294123 Z" id="Stroke-69" stroke="#4F4A45"></path>
                <polygon id="Fill-71" fill="#6F7173" points="51.2653968 215.263088 59.5202888 212.912811 58.6107061 202.10669 46.2283681 205.629958"></polygon>
                <polygon id="Stroke-73" stroke="#4F4A45" stroke-linejoin="round" points="51.2653968 215.263088 59.5202888 212.912811 58.6107061 202.10669 46.2283681 205.629958"></polygon>
                <path d="M50.6668742,236.795412 C51.683719,238.406663 53.6358894,239.154283 55.4636358,238.634387 L65.0056731,235.918892 C70.4760407,234.363498 73.6509992,228.657522 72.0978438,223.17927 L70.6905649,218.220915 C69.1374096,212.742663 63.4396463,209.563128 57.9692787,211.122819 L48.4272413,213.838313 C46.5952045,214.35821 45.3295116,216.025317 45.3123497,217.928741 C45.2479924,224.601467 47.1100626,231.153887 50.6668742,236.795412" id="Fill-75" fill="#FFDFD1"></path>
                <path d="M50.6668742,236.795412 C51.683719,238.406663 53.6358894,239.154283 55.4636358,238.634387 L65.0056731,235.918892 C70.4760407,234.363498 73.6509992,228.657522 72.0978438,223.17927 L70.6905649,218.220915 C69.1374096,212.742663 63.4396463,209.563128 57.9692787,211.122819 L48.4272413,213.838313 C46.5952045,214.35821 45.3295116,216.025317 45.3123497,217.928741 C45.2479924,224.601467 47.1100626,231.153887 50.6668742,236.795412 L50.6668742,236.795412 Z" id="Stroke-77" stroke="#504B46" stroke-linecap="round" stroke-linejoin="round"></path>
                <path d="M70.0950457,232.605731 C70.0435599,231.922561 69.9234263,231.239391 69.7303545,230.55622 L68.3230756,225.593568 C66.7699203,220.115316 61.072157,216.940078 55.6017894,218.495472 L45.4547937,221.382833 C45.3518221,220.239919 45.3046268,219.088412 45.3132078,217.928312 C45.3303697,216.020591 46.6003531,214.35778 48.4323899,213.837883 L57.9701368,211.122389 C63.4405044,209.562698 69.1339772,212.742233 70.691423,218.220485 L72.0987019,223.183137 C73.0640609,226.586099 72.1973831,230.074993 70.0950457,232.605731" id="Fill-79" fill="#FFEFE9"></path>
                <path d="M50.6690194,236.79842 C51.6858642,238.409671 53.6380347,239.157291 55.4700715,238.633098 L65.0078183,235.917603 C70.478186,234.362209 73.6531444,228.66053 72.0956986,223.182278 L70.6884197,218.219626 C69.1352643,212.741374 63.4417915,209.566136 57.9714239,211.12153 L48.4293866,213.837024 C46.6016402,214.356921 45.3316568,216.024028 45.3144949,217.927452 C45.280171,221.124174 45.6920575,224.295115 46.520121,227.354343 C47.4211227,230.675668 48.8155302,233.859499 50.6690194,236.79842 L50.6690194,236.79842 Z" id="Stroke-81" stroke="#504B46" stroke-linecap="round" stroke-linejoin="round"></path>
                <path d="M45.0574949,201.498711 C45.705358,203.780242 48.0779959,205.107912 50.3562431,204.459116 L54.4836891,203.281828 C56.7619363,202.633031 58.087696,200.256974 57.4398329,197.975443 C56.7919697,195.693912 54.4193319,194.366241 52.1367942,195.015038 L48.0136386,196.192325 C45.7311009,196.841122 44.4096317,199.21718 45.0574949,201.498711" id="Fill-83" fill="#FFDFD1"></path>
                <path d="M45.0574949,201.498711 C45.705358,203.780242 48.0779959,205.107912 50.3562431,204.459116 L54.4836891,203.281828 C56.7619363,202.633031 58.087696,200.256974 57.4398329,197.975443 C56.7919697,195.693912 54.4193319,194.366241 52.1367942,195.015038 L48.0136386,196.192325 C45.7311009,196.841122 44.4096317,199.21718 45.0574949,201.498711 L45.0574949,201.498711 Z" id="Stroke-85" stroke="#504B46" stroke-linecap="round" stroke-linejoin="round"></path>
                <path d="M193.480796,89.5833884 L193.480796,106.770062" id="Stroke-87" stroke="#4F4A45"></path>
                <path d="M81.9282017,89.5833884 L81.9282017,106.770062" id="Stroke-89" stroke="#4F4A45"></path>
                <path d="M178.464101,104.621728 C178.464101,100.62153 175.722481,97.2916116 172.028374,96.3334545 L172.028374,93.8800568 C172.028374,74.8973757 156.659859,59.5067094 137.704499,59.5067094 C118.749139,59.5067094 103.380624,74.8973757 103.380624,93.8800568 L103.380624,96.3334545 C99.6865166,97.2916116 96.9448971,100.62153 96.9448971,104.621728 C96.9448971,108.6563 99.7294215,112.016294 103.475014,112.940078 C104.453245,131.046239 119.37984,145.440078 137.704499,145.440078 C156.029158,145.440078 170.955753,131.046239 171.933984,112.940078 C175.679576,112.016294 178.464101,108.6563 178.464101,104.621728" id="Fill-91" fill="#FFDFD1"></path>
                <path d="M178.464101,104.621728 C178.464101,100.62153 175.722481,97.2916116 172.028374,96.3334545 L172.028374,93.8800568 C172.028374,74.8973757 156.659859,59.5067094 137.704499,59.5067094 C118.749139,59.5067094 103.380624,74.8973757 103.380624,93.8800568 L103.380624,96.3334545 C99.6865166,97.2916116 96.9448971,100.62153 96.9448971,104.621728 C96.9448971,108.6563 99.7294215,112.016294 103.475014,112.940078 C104.453245,131.046239 119.37984,145.440078 137.704499,145.440078 C156.029158,145.440078 170.955753,131.046239 171.933984,112.940078 C175.679576,112.016294 178.464101,108.6563 178.464101,104.621728 L178.464101,104.621728 Z" id="Stroke-93" stroke="#504B46" stroke-linecap="round" stroke-linejoin="round"></path>
                <path d="M131.268772,106.770062 C129.943013,104.247918 127.61757,102.473394 124.833046,102.473394 C122.048521,102.473394 119.723079,104.247918 118.397319,106.770062" id="Stroke-95" stroke="#504B46" stroke-linecap="round" stroke-linejoin="round"></path>
                <path d="M157.011679,106.770062 C155.685919,104.247918 153.360477,102.473394 150.575952,102.473394 C147.791428,102.473394 145.465985,104.247918 144.140226,106.770062" id="Stroke-97" stroke="#504B46" stroke-linecap="round" stroke-linejoin="round"></path>
                <path d="M124.511259,126.10507 C127.158488,128.627214 131.817954,130.401738 137.382713,130.401738 C142.947471,130.401738 147.606937,128.627214 150.254166,126.10507" id="Stroke-99" stroke="#504B46" stroke-linecap="round" stroke-linejoin="round"></path>
                <path d="M120.542561,119.660067 C120.542561,122.031828 118.620424,123.956736 116.252077,123.956736 C113.88373,123.956736 111.961593,122.031828 111.961593,119.660067 C111.961593,117.288306 113.88373,115.363399 116.252077,115.363399 C118.620424,115.363399 120.542561,117.288306 120.542561,119.660067" id="Fill-101" fill="#FFCAB3"></path>
                <path d="M163.447405,119.660067 C163.447405,122.031828 161.525268,123.956736 159.156921,123.956736 C156.788574,123.956736 154.866437,122.031828 154.866437,119.660067 C154.866437,117.288306 156.788574,115.363399 159.156921,115.363399 C161.525268,115.363399 163.447405,117.288306 163.447405,119.660067" id="Fill-103" fill="#FFCAB3"></path>
                <path d="M101.235382,48.7650383 C102.925832,50.9649326 113.656334,55.2186343 111.961593,57.3583752 C99.0901393,57.3583752 92.6544127,61.6550436 92.6544127,61.6550436 L99.0901393,68.1000463 C96.3656817,75.4731293 101.235382,79.4346576 101.235382,83.1383858 C101.235382,90.2579654 112.249055,80.9900516 120.542561,80.9900516 C128.836068,80.9900516 137.704499,66.626289 137.704499,59.5067094 C137.704499,52.7566433 118.397319,44.4683699 101.235382,48.7650383" id="Fill-105" fill="#FFE086"></path>
                <path d="M101.235382,48.7650383 C102.925832,50.9649326 113.656334,55.2186343 111.961593,57.3583752 C99.0901393,57.3583752 92.6544127,61.6550436 92.6544127,61.6550436 L99.0901393,68.1000463 C96.3656817,75.4731293 101.235382,79.4346576 101.235382,83.1383858 C101.235382,90.2579654 112.249055,80.9900516 120.542561,80.9900516 C128.836068,80.9900516 137.704499,66.626289 137.704499,59.5067094 C137.704499,52.7566433 118.397319,44.4683699 101.235382,48.7650383 L101.235382,48.7650383 Z" id="Stroke-107" stroke="#4F4A45" stroke-linejoin="round"></path>
                <path d="M172.028374,46.6167041 C170.337923,48.8165984 161.752664,55.2186343 163.447405,57.3583752 C176.318859,57.3583752 182.754585,61.6550436 182.754585,61.6550436 L176.318859,68.1000463 C179.043316,75.4731293 174.173616,79.4346576 174.173616,83.1383858 C174.173616,90.2579654 163.159943,80.9900516 154.866437,80.9900516 C146.57293,80.9900516 137.704499,66.626289 137.704499,59.5067094 C137.704499,52.7566433 159.156921,46.6167041 172.028374,46.6167041" id="Fill-109" fill="#FFE086"></path>
                <path d="M172.028374,46.6167041 C170.337923,48.8165984 161.752664,55.2186343 163.447405,57.3583752 C176.318859,57.3583752 182.754585,61.6550436 182.754585,61.6550436 L176.318859,68.1000463 C179.043316,75.4731293 174.173616,79.4346576 174.173616,83.1383858 C174.173616,90.2579654 163.159943,80.9900516 154.866437,80.9900516 C146.57293,80.9900516 137.704499,66.626289 137.704499,59.5067094 C137.704499,52.7566433 159.156921,46.6167041 172.028374,46.6167041 L172.028374,46.6167041 Z" id="Stroke-111" stroke="#4F4A45" stroke-linejoin="round"></path>
                <path d="M193.480796,89.5833884 C193.480796,91.9551494 191.558659,93.8800568 189.190312,93.8800568 L184.899827,93.8800568 L184.899827,80.9900516 L189.190312,80.9900516 C191.558659,80.9900516 193.480796,82.914959 193.480796,85.28672 L193.480796,89.5833884 Z" id="Fill-113" fill="#939598"></path>
                <path d="M193.480796,89.5833884 C193.480796,91.9551494 191.558659,93.8800568 189.190312,93.8800568 L184.899827,93.8800568 L184.899827,80.9900516 L189.190312,80.9900516 C191.558659,80.9900516 193.480796,82.914959 193.480796,85.28672 L193.480796,89.5833884 L193.480796,89.5833884 Z" id="Stroke-115" stroke="#4F4A45"></path>
                <path d="M188.966349,119.825059 C187.833661,122.566334 184.697317,123.868224 181.959988,122.729607 C179.222658,121.595287 177.922642,118.454422 179.05533,115.713148 L183.161323,105.79214 C184.294011,103.050866 187.430355,101.748975 190.167684,102.883296 C192.905013,104.017616 194.20503,107.162778 193.072342,109.899755 L188.966349,119.825059 Z" id="Fill-117" fill="#545454"></path>
                <path d="M188.966349,119.825059 C187.833661,122.566334 184.697317,123.868224 181.959988,122.729607 C179.222658,121.595287 177.922642,118.454422 179.05533,115.713148 L183.161323,105.79214 C184.294011,103.050866 187.430355,101.748975 190.167684,102.883296 C192.905013,104.017616 194.20503,107.162778 193.072342,109.899755 L188.966349,119.825059 L188.966349,119.825059 Z" id="Stroke-119" stroke="#4F4A45"></path>
                <path d="M86.2186861,93.8800568 L90.5091705,93.8800568 L90.5091705,80.9900516 L86.2186861,80.9900516 C83.8503387,80.9900516 81.9282017,82.914959 81.9282017,85.28672 L81.9282017,89.5833884 C81.9282017,91.9551494 83.8503387,93.8800568 86.2186861,93.8800568" id="Fill-121" fill="#939598"></path>
                <path d="M86.2186861,93.8800568 L90.5091705,93.8800568 L90.5091705,80.9900516 L86.2186861,80.9900516 C83.8503387,80.9900516 81.9282017,82.914959 81.9282017,85.28672 L81.9282017,89.5833884 C81.9282017,91.9551494 83.8503387,93.8800568 86.2186861,93.8800568 L86.2186861,93.8800568 Z" id="Stroke-123" stroke="#4F4A45"></path>
                <path d="M86.4426494,119.825059 C87.5753373,122.566334 90.7116814,123.868224 93.4490104,122.729607 C96.1863395,121.595287 97.4863562,118.454422 96.3536684,115.713148 L92.2476748,105.79214 C91.1149869,103.050866 87.9786428,101.748975 85.2413137,102.883296 C82.5039847,104.017616 81.2039679,107.162778 82.3366558,109.899755 L86.4426494,119.825059 Z" id="Fill-125" fill="#545454"></path>
                <path d="M86.4426494,119.825059 C87.5753373,122.566334 90.7116814,123.868224 93.4490104,122.729607 C96.1863395,121.595287 97.4863562,118.454422 96.3536684,115.713148 L92.2476748,105.79214 C91.1149869,103.050866 87.9786428,101.748975 85.2413137,102.883296 C82.5039847,104.017616 81.2039679,107.162778 82.3366558,109.899755 L86.4426494,119.825059 L86.4426494,119.825059 Z" id="Stroke-127" stroke="#4F4A45"></path>
                <path d="M184.380679,79.8295214 C185.075737,87.752578 185.071447,95.7271946 184.380679,103.650251 C183.797173,110.297197 178.421196,115.362969 171.968307,115.362969 L103.440691,115.362969 C97.0006734,115.362969 91.611825,110.284307 91.0283191,103.650251 C90.3375511,95.7228979 90.3375511,87.7439847 91.0283191,79.8123347 C91.611825,73.1653887 96.987802,68.0996166 103.440691,68.0996166 L171.985469,68.0996166 C178.438358,68.0996166 183.801463,73.1825754 184.380679,79.8295214" id="Fill-129" fill="#6F7173"></path>
                <path d="M90.6709218,98.1767253 C90.7567315,96.3506412 90.8725745,94.5245571 91.0313225,92.7027697 C91.6105378,86.0558236 96.9865148,80.9900516 103.439403,80.9900516 L171.984182,80.9900516 C178.437071,80.9900516 183.800176,86.0730103 184.379392,92.7199564 C184.53814,94.5374471 184.653983,96.3592345 184.739792,98.1767253 C185.027255,92.0625661 184.915702,85.9312203 184.379392,79.8299511 C183.800176,73.183005 178.437071,68.1000463 171.984182,68.1000463 L103.439403,68.1000463 C96.9865148,68.1000463 91.6105378,73.1658184 91.0313225,79.8127644 C90.4950119,85.9183302 90.3834593,92.0539728 90.6709218,98.1767253" id="Fill-131" fill="#939598"></path>
                <path d="M144.140226,68.1000463 L131.268772,68.1000463 L131.268772,46.6167041 C131.268772,45.4308236 132.229841,44.4683699 133.414015,44.4683699 L141.994983,44.4683699 C143.179157,44.4683699 144.140226,45.4308236 144.140226,46.6167041 L144.140226,68.1000463 Z" id="Fill-133" fill="#BDBEC0"></path>
                <path d="M184.380679,79.8295214 C185.075737,87.752578 185.071447,95.7271946 184.380679,103.650251 C183.797173,110.297197 178.421196,115.362969 171.968307,115.362969 L103.440691,115.362969 C97.0006734,115.362969 91.611825,110.284307 91.0283191,103.650251 C90.3375511,95.7228979 90.3375511,87.7439847 91.0283191,79.8123347 C91.611825,73.1653887 96.987802,68.0996166 103.440691,68.0996166 L171.985469,68.0996166 C178.438358,68.0996166 183.801463,73.1825754 184.380679,79.8295214 L184.380679,79.8295214 Z" id="Stroke-135" stroke="#4F4A45"></path>
                <polygon id="Fill-137" fill="#DADCDC" points="131.268772 55.210041 144.140226 55.210041 144.140226 44.4683699 131.268772 44.4683699"></polygon>
                <path d="M144.140226,68.1000463 L131.268772,68.1000463 L131.268772,46.6167041 C131.268772,45.4308236 132.229841,44.4683699 133.414015,44.4683699 L141.994983,44.4683699 C143.179157,44.4683699 144.140226,45.4308236 144.140226,46.6167041 L144.140226,68.1000463 L144.140226,68.1000463 Z" id="Stroke-139" stroke="#4F4A45"></path>
                <path d="M51.8948108,85.28672 L51.8948108,68.1000463" id="Stroke-140" stroke="#F1637E" stroke-linecap="round" stroke-linejoin="round"></path>
                <path d="M43.313842,76.6933831 L60.4757797,76.6933831" id="Stroke-141" stroke="#F1637E" stroke-linecap="round" stroke-linejoin="round"></path>
                <path d="M135.559257,14.3916909 L135.559257,5.79835405" id="Stroke-142" stroke="#45B7D4" stroke-linecap="round" stroke-linejoin="round"></path>
                <path d="M131.268772,10.0950225 L139.849741,10.0950225" id="Stroke-143" stroke="#45B7D4" stroke-linecap="round" stroke-linejoin="round"></path>
                <path d="M253.547578,123.956736 L253.547578,115.363399" id="Stroke-144" stroke="#45B7D4" stroke-linecap="round" stroke-linejoin="round"></path>
                <path d="M249.257094,119.660067 L257.838062,119.660067" id="Stroke-145" stroke="#45B7D4" stroke-linecap="round" stroke-linejoin="round"></path>
                <path d="M229.949914,38.0233673 L229.949914,29.4300304" id="Stroke-146" stroke="#FFC258" stroke-linecap="round" stroke-linejoin="round"></path>
                <path d="M225.659429,33.7266988 L234.240398,33.7266988" id="Stroke-147" stroke="#FFC258" stroke-linecap="round" stroke-linejoin="round"></path>
                <path d="M39.0233576,44.4683699 L39.0233576,35.8750331" id="Stroke-148" stroke="#4ACEAF" stroke-linecap="round" stroke-linejoin="round"></path>
                <path d="M34.7328732,40.1717015 L43.313842,40.1717015" id="Stroke-149" stroke="#4ACEAF" stroke-linecap="round" stroke-linejoin="round"></path>
                <path d="M177.575542,27.9897871 C177.180817,28.7288141 177.202269,29.6225212 177.635608,30.3400648 C178.064657,31.0576084 178.841234,31.4958686 179.677879,31.4958686 L199.680117,31.4958686 C200.516762,31.4958686 201.293339,31.0576084 201.722388,30.3400648 C202.151436,29.6225212 202.177179,28.7288141 201.782455,27.9897871 L191.781335,9.20904944 C191.365158,8.43135246 190.558547,7.94582893 189.678998,7.94582893 C188.799449,7.94582893 187.992838,8.43135246 187.576661,9.20904944 L177.575542,27.9897871 L177.575542,27.9897871 Z" id="Stroke-150" stroke="#F1637E" stroke-linecap="round" stroke-linejoin="round"></path>
                <path d="M62.9243591,125.696027 C56.7246091,140.35626 39.832972,147.209446 25.1895487,141.00076 C13.4808168,136.038108 8.00615869,122.503603 12.9616682,110.773698 C16.9303663,101.389774 27.742387,97.0028755 37.1128049,100.977294 C44.6082812,104.156828 48.1136069,112.818912 44.9386485,120.325192 C42.3986817,126.327637 35.4781304,129.137659 29.4843236,126.594031 C24.6875621,124.55741 22.4436387,119.014708 24.4730378,114.211033 C26.0991314,110.369811 30.5269113,108.569507 34.3668949,110.197944" id="Stroke-151" stroke="#45B7D4" stroke-linecap="round" stroke-linejoin="round"></path>
                <path d="M219.110863,100.248149 L219.110863,96.1405341 C219.110863,93.4035563 221.329043,91.1864754 224.062082,91.1864754 L228.159495,91.1864754 C230.896824,91.1864754 233.110714,88.9650978 233.110714,86.22812 L233.110714,82.120505 C233.110714,79.3835272 235.328894,77.1621497 238.061933,77.1621497 L242.163636,77.1621497 C244.896674,77.1621497 247.110564,74.9450687 247.110564,72.208091 L247.110564,68.1004759" id="Stroke-152" stroke="#4ACEAF" stroke-linecap="round" stroke-linejoin="round"></path>
                <path d="M64.7662641,0.0515600212 L69.8547786,0.0515600212 C72.9267654,0.0515600212 75.4195368,2.54792438 75.4195368,5.62433897 L75.4195368,10.2432575 C75.4195368,13.3196721 77.9123083,15.8160365 80.9842951,15.8160365 L85.5965659,15.8160365 C88.6685527,15.8160365 91.1613241,18.3081042 91.1613241,21.3888154 L91.1613241,26.0034373 C91.1613241,29.0841486 93.6498051,31.580513 96.7260824,31.580513" id="Stroke-153" stroke="#FFC258" stroke-linecap="round" stroke-linejoin="round"></path>
            </g>
        </g>
    </g>
</svg>